<?xml version="1.0" encoding="utf-8"?>
<svg version="1.1" xmlns:xlink="http://www.w3.org/1999/xlink" width="40px" height="25px" xmlns="http://www.w3.org/2000/svg">
  <g transform="matrix(1 0 0 1 -1045 -677 )">
    <path d="M 1045 690.570415857823  C 1045 690.570415857823  1045 683.256517599159  1045 683.256517599159  C 1045 679.942809100175  1047.68629150102 677.256517599159  1051 677.256517599159  C 1051 677.256517599159  1079 677.256517599159  1079 677.256517599159  C 1082.31370849898 677.256517599159  1085 679.942809100175  1085 683.256517599159  C 1085 683.256517599159  1085 690.570415857823  1085 690.570415857823  C 1085 693.884124356808  1082.31370849898 696.570415857823  1079 696.570415857823  C 1079 696.570415857823  1070.93674698795 696.570415857823  1070.93674698795 696.570415857823  C 1070.93674698795 696.570415857823  1065.01047619048 701.683887254994  1065.01047619048 701.683887254994  C 1065.01047619048 701.683887254994  1058.43674698795 696.570415857823  1058.43674698795 696.570415857823  C 1058.43674698795 696.570415857823  1051 696.570415857823  1051 696.570415857823  C 1047.68629150102 696.570415857823  1045 693.884124356808  1045 690.570415857823  Z " fill-rule="nonzero" fill="#f56c6c" stroke="none" />
  </g>
</svg>