<?xml version="1.0" encoding="utf-8"?>
<svg version="1.1" xmlns:xlink="http://www.w3.org/1999/xlink" width="335px" height="70px" xmlns="http://www.w3.org/2000/svg">
  <g>
    <path d="M 0.5 55.3623188405797  C 0.5 55.3623188405797  0.5 5  0.5 5  C 0.5 2.51471862576143  2.51471862576143 0.5  5 0.5  C 5 0.5  330 0.5  330 0.5  C 332.485281374239 0.5  334.5 2.51471862576143  334.5 5  C 334.5 5  334.5 55.3623188405797  334.5 55.3623188405797  C 334.5 57.8476002148183  332.485281374239 59.8623188405797  330 59.8623188405797  C 330 59.8623188405797  280.802430675816 59.8623188405797  280.802430675816 59.8623188405797  C 280.802430675816 59.8623188405797  271 69.0422638532517  271 69.0422638532517  C 271 69.0422638532517  261.197569324184 59.8623188405797  261.197569324184 59.8623188405797  C 261.197569324184 59.8623188405797  5 59.8623188405797  5 59.8623188405797  C 2.51471862576143 59.8623188405797  0.5 57.8476002148183  0.5 55.3623188405797  Z " fill-rule="nonzero" fill="#ffffff" stroke="none" fill-opacity="0.8" />
    <path d="M 0 55.3623188405797  C 0 55.3623188405797  0 5  0 5  C 0 2.23857625084603  2.23857625084603 0  5 0  C 5 0  330 0  330 0  C 332.761423749154 0  335 2.23857625084603  335 5  C 335 5  335 55.3623188405797  335 55.3623188405797  C 335 58.1237425897337  332.761423749154 60.3623188405797  330 60.3623188405797  C 330 60.3623188405797  281 60.3623188405797  281 60.3623188405797  C 281 60.3623188405797  271 69.7272868941873  271 69.7272868941873  C 271 69.7272868941873  261 60.3623188405797  261 60.3623188405797  C 261 60.3623188405797  5 60.3623188405797  5 60.3623188405797  C 2.23857625084603 60.3623188405797  0 58.1237425897337  0 55.3623188405797  Z M 1 55.3623188405797  C 1 57.5714578399029  2.79086100067683 59.3623188405797  5 59.3623188405797  C 5 59.3623188405797  261.395138648368 59.3623188405797  261.395138648368 59.3623188405797  C 261.395138648368 59.3623188405797  271 68.357240812316  271 68.357240812316  C 271 68.357240812316  280.604861351632 59.3623188405797  280.604861351632 59.3623188405797  C 280.604861351632 59.3623188405797  330 59.3623188405797  330 59.3623188405797  C 332.209138999323 59.3623188405797  334 57.5714578399029  334 55.3623188405797  C 334 55.3623188405797  334 5  334 5  C 334 2.79086100067683  332.209138999323 1  330 1  C 330 1  5 1  5 1  C 2.79086100067683 1  1 2.79086100067683  1 5  C 1 5  1 55.3623188405797  1 55.3623188405797  Z " fill-rule="nonzero" fill="#e9e9e9" stroke="none" />
  </g>
</svg>