<?xml version="1.0" encoding="utf-8"?>
<svg version="1.1" xmlns:xlink="http://www.w3.org/1999/xlink" width="30px" height="30px" xmlns="http://www.w3.org/2000/svg">
  <g transform="matrix(1 0 0 1 -35 -60 )">
    <path d="M 50 61  C 57.84 61  64 67.16  64 75  C 64 82.84  57.84 89  50 89  C 42.16 89  36 82.84  36 75  C 36 67.16  42.16 61  50 61  Z " fill-rule="nonzero" fill="#ffffff" stroke="none" />
    <path d="M 50 61  C 57.84 61  64 67.16  64 75  C 64 82.84  57.84 89  50 89  C 42.16 89  36 82.84  36 75  C 36 67.16  42.16 61  50 61  Z " stroke-width="2" stroke="#409eff" fill="none" />
  </g>
</svg>