<?xml version="1.0" encoding="utf-8"?>
<svg version="1.1" xmlns:xlink="http://www.w3.org/1999/xlink" width="30px" height="30px" xmlns="http://www.w3.org/2000/svg">
  <g transform="matrix(1 0 0 1 -312 -60 )">
    <path d="M 327 61  C 334.84 61  341 67.16  341 75  C 341 82.84  334.84 89  327 89  C 319.16 89  313 82.84  313 75  C 313 67.16  319.16 61  327 61  Z " fill-rule="nonzero" fill="#ffffff" stroke="none" />
    <path d="M 327 61  C 334.84 61  341 67.16  341 75  C 341 82.84  334.84 89  327 89  C 319.16 89  313 82.84  313 75  C 313 67.16  319.16 61  327 61  Z " stroke-width="2" stroke="#e4e4e4" fill="none" />
  </g>
</svg>