<?xml version="1.0" encoding="utf-8"?>
<svg version="1.1" xmlns:xlink="http://www.w3.org/1999/xlink" width="30px" height="30px" xmlns="http://www.w3.org/2000/svg">
  <g transform="matrix(1 0 0 1 -127 -60 )">
    <path d="M 142 61  C 149.84 61  156 67.16  156 75  C 156 82.84  149.84 89  142 89  C 134.16 89  128 82.84  128 75  C 128 67.16  134.16 61  142 61  Z " fill-rule="nonzero" fill="#409eff" stroke="none" />
    <path d="M 142 61  C 149.84 61  156 67.16  156 75  C 156 82.84  149.84 89  142 89  C 134.16 89  128 82.84  128 75  C 128 67.16  134.16 61  142 61  Z " stroke-width="2" stroke="#409eff" fill="none" />
  </g>
</svg>