<?xml version="1.0" encoding="utf-8"?>
<svg version="1.1" xmlns:xlink="http://www.w3.org/1999/xlink" width="30px" height="30px" xmlns="http://www.w3.org/2000/svg">
  <g transform="matrix(1 0 0 1 -38 -193 )">
    <path d="M 53 194  C 60.84 194  67 200.16  67 208  C 67 215.84  60.84 222  53 222  C 45.16 222  39 215.84  39 208  C 39 200.16  45.16 194  53 194  Z " fill-rule="nonzero" fill="#ffffff" stroke="none" />
    <path d="M 53 194  C 60.84 194  67 200.16  67 208  C 67 215.84  60.84 222  53 222  C 45.16 222  39 215.84  39 208  C 39 200.16  45.16 194  53 194  Z " stroke-width="2" stroke="#0079fe" fill="none" />
  </g>
</svg>