<?xml version="1.0" encoding="utf-8"?>
<svg version="1.1" xmlns:xlink="http://www.w3.org/1999/xlink" width="15px" height="15px" xmlns="http://www.w3.org/2000/svg">
  <g transform="matrix(1 0 0 1 -37 -829 )">
    <path d="M 44.5 830  C 48.14 830  51 832.86  51 836.5  C 51 840.14  48.14 843  44.5 843  C 40.86 843  38 840.14  38 836.5  C 38 832.86  40.86 830  44.5 830  Z " fill-rule="nonzero" fill="#ffffff" stroke="none" />
    <path d="M 44.5 830  C 48.14 830  51 832.86  51 836.5  C 51 840.14  48.14 843  44.5 843  C 40.86 843  38 840.14  38 836.5  C 38 832.86  40.86 830  44.5 830  Z " stroke-width="2" stroke="#409eff" fill="none" />
  </g>
</svg>