<?xml version="1.0" encoding="utf-8"?>
<svg version="1.1" xmlns:xlink="http://www.w3.org/1999/xlink" width="27px" height="27px" xmlns="http://www.w3.org/2000/svg">
  <g transform="matrix(1 0 0 1 -924 -651 )">
    <path d="M 937.5 652  C 944.5 652  950 657.5  950 664.5  C 950 671.5  944.5 677  937.5 677  C 930.5 677  925 671.5  925 664.5  C 925 657.5  930.5 652  937.5 652  Z " fill-rule="nonzero" fill="#ffffff" stroke="none" fill-opacity="0" />
    <path d="M 937.5 652  C 944.5 652  950 657.5  950 664.5  C 950 671.5  944.5 677  937.5 677  C 930.5 677  925 671.5  925 664.5  C 925 657.5  930.5 652  937.5 652  Z " stroke-width="2" stroke="#ffffff" fill="none" />
  </g>
</svg>