<?xml version="1.0" encoding="utf-8"?>
<svg version="1.1" xmlns:xlink="http://www.w3.org/1999/xlink" width="150px" height="133px" xmlns="http://www.w3.org/2000/svg">
  <defs>
    <filter x="-5px" y="-3px" width="150px" height="133px" filterUnits="userSpaceOnUse" id="filter66">
      <feOffset dx="0" dy="0" in="SourceAlpha" result="shadowOffsetInner" />
      <feGaussianBlur stdDeviation="2.5" in="shadowOffsetInner" result="shadowGaussian" />
      <feComposite in2="shadowGaussian" operator="atop" in="SourceAlpha" result="shadowComposite" />
      <feColorMatrix type="matrix" values="0 0 0 0 0  0 0 0 0 0  0 0 0 0 0  0 0 0 0.149019607843137 0  " in="shadowComposite" />
    </filter>
    <g id="widget67">
      <path d="M 0 111.109239831636  C 0 111.109239831636  0 7  0 7  C 0 4.23857625084603  2.23857625084603 2  5 2  C 5 2  135 2  135 2  C 137.761423749154 2  140 4.23857625084603  140 7  C 140 7  140 111.109239831636  140 111.109239831636  C 140 113.870663580789  137.761423749154 116.109239831636  135 116.109239831636  C 135 116.109239831636  80.7466666666667 116.109239831636  80.7466666666667 116.109239831636  C 80.7466666666667 116.109239831636  70.8151515151515 124.775414964822  70.8151515151515 124.775414964822  C 70.8151515151515 124.775414964822  60.7466666666667 116.109239831636  60.7466666666667 116.109239831636  C 60.7466666666667 116.109239831636  5 116.109239831636  5 116.109239831636  C 2.23857625084603 116.109239831636  0 113.870663580789  0 111.109239831636  Z " fill-rule="nonzero" fill="#ffffff" stroke="none" />
    </g>
  </defs>
  <g transform="matrix(1 0 0 1 5 3 )">
    <use xlink:href="#widget67" filter="url(#filter66)" />
    <use xlink:href="#widget67" />
  </g>
</svg>