<?xml version="1.0" encoding="utf-8"?>
<svg version="1.1" xmlns:xlink="http://www.w3.org/1999/xlink" width="15px" height="15px" viewBox="759 209.5  15 15" xmlns="http://www.w3.org/2000/svg">
  <path d="M 766.5 209.5  C 770.7 209.5  774 212.8  774 217  C 774 221.2  770.7 224.5  766.5 224.5  C 762.3 224.5  759 221.2  759 217  C 759 212.8  762.3 209.5  766.5 209.5  Z " fill-rule="nonzero" fill="#f2f2f2" stroke="none" />
  <path d="M 766.5 210  C 770.42 210  773.5 213.08  773.5 217  C 773.5 220.92  770.42 224  766.5 224  C 762.58 224  759.5 220.92  759.5 217  C 759.5 213.08  762.58 210  766.5 210  Z " stroke-width="1" stroke="#cccccc" fill="none" />
  <path d="M 766.5 220.75  C 764.4 220.75  762.75 219.1  762.75 217  C 762.75 214.9  764.4 213.25  766.5 213.25  C 768.6 213.25  770.25 214.9  770.25 217  C 770.25 219.1  768.6 220.75  766.5 220.75  " fill-rule="nonzero" fill="#cccccc" stroke="none" />
</svg>