<?xml version="1.0" encoding="utf-8"?>
<svg version="1.1" xmlns:xlink="http://www.w3.org/1999/xlink" width="15px" height="15px" viewBox="759 309.5  15 15" xmlns="http://www.w3.org/2000/svg">
  <path d="M 766.5 309.5  C 770.7 309.5  774 312.8  774 317  C 774 321.2  770.7 324.5  766.5 324.5  C 762.3 324.5  759 321.2  759 317  C 759 312.8  762.3 309.5  766.5 309.5  Z " fill-rule="nonzero" fill="#f2f2f2" stroke="none" />
  <path d="M 766.5 310  C 770.42 310  773.5 313.08  773.5 317  C 773.5 320.92  770.42 324  766.5 324  C 762.58 324  759.5 320.92  759.5 317  C 759.5 313.08  762.58 310  766.5 310  Z " stroke-width="1" stroke="#cccccc" fill="none" />
  <path d="M 766.5 320.75  C 764.4 320.75  762.75 319.1  762.75 317  C 762.75 314.9  764.4 313.25  766.5 313.25  C 768.6 313.25  770.25 314.9  770.25 317  C 770.25 319.1  768.6 320.75  766.5 320.75  " fill-rule="nonzero" fill="#cccccc" stroke="none" />
</svg>